<?xml version="1.0" encoding="utf-8"?>
<!-- Generator: Adobe Illustrator 24.1.0, SVG Export Plug-In . SVG Version: 6.00 Build 0)  -->
<svg version="1.1" id="圖層_1" xmlns="http://www.w3.org/2000/svg" xmlns:xlink="http://www.w3.org/1999/xlink" x="0px" y="0px"
	 viewBox="0 0 568 199.3" style="enable-background:new 0 0 568 199.3;" xml:space="preserve">
<style type="text/css">
	.st0{fill:#00573D;}
	.st1{fill:#B3863B;}
	.st2{fill:#C89E4E;}
	.st3{fill:#DDC39C;}
	.st4{fill:#804C2E;}
	.st5{fill:url(#SVGID_1_);}
	.st6{fill:url(#SVGID_2_);}
	.st7{fill:url(#SVGID_3_);}
	.st8{fill:url(#SVGID_4_);}
	.st9{fill:none;}
	.st10{fill:url(#SVGID_5_);}
	.st11{fill:url(#SVGID_6_);}
</style>
<g>
	<g>
		<path class="st0" d="M223.3,148v5.8h-17.4v17h16.2v5.8h-16.2v21.9h-9.8V148H223.3z"/>
		<path class="st0" d="M233.2,141.6l6,6l-6,6l-6-6L233.2,141.6z M237.7,160.7v37.8h-9v-37.8H237.7z"/>
		<path class="st0" d="M255.6,160.7l0.2,9.4c2-6.4,5.9-10,9.5-10c0.9,0,1.9,0.1,3.5,0.6l-1.5,7.9c-1.1-0.3-2.2-0.5-3-0.5
			c-2.6,0-5.3,1.9-6.6,5.3c-1.3,3.2-1.3,9-1.3,11.6v13.6h-9v-37.8H255.6z"/>
		<path class="st0" d="M290,166.6c-2.2-1-4.3-1.6-6.7-1.6c-3.5,0-5.2,1.8-5.2,3.9c0,1.6,1.3,3.3,4.4,5.3l3.3,2.2c4,2.6,8,5.8,8,11.4
			c0,6.5-5.3,11.6-13.4,11.6c-4.6,0-8.2-1.4-10.6-2.8l2.2-4.6c1.9,1,4.8,2.4,8.2,2.4c2.9,0,5.5-1.6,5.5-4.7c0-3.3-3.6-5.1-6.2-6.9
			l-3-2.1c-4.2-2.9-6.6-5.9-6.6-10c0-5.6,5.2-10.5,13.1-10.5c1.4,0,4.8,0.1,8.9,1.9L290,166.6z"/>
		<path class="st0" d="M308.6,150.7v10h7.1v4.9h-6.8V188c0,3.2,0,5.7,3.3,5.7c1.2,0,2.2-0.3,2.9-0.6l1.3,4.9
			c-2.5,0.8-5.1,1.1-7.8,1.1c-3.6,0-6.4-1.2-7.7-3.8c-1.1-2-1-4.5-1-6.6v-23h-5.3v-4.9h5.7l0.2-10H308.6z"/>
		<path class="st0" d="M355.1,148c4.6,0,8.6,0.3,12.1,2.2c3.3,1.8,5.3,5.1,5.3,9.3c0,5.4-3.4,10.4-10.6,12.4
			c1.9,0.3,4.6,0.7,7.4,2.5c3.1,2.1,5,5.3,5,9.7c0,4.8-2.5,9.6-7.4,11.9c-3.1,1.8-6.6,2.5-14.6,2.5h-12.5V148H355.1z M352.6,169.7
			c2,0,4.9,0,6.9-1.1c2.4-1.4,3.5-4.4,3.5-7.7c0-2.1-0.5-4.7-2.5-6.2c-1.7-1.3-3.9-1.3-7.2-1.3h-3.8v16.3H352.6z M353.3,193
			c2.1,0,5.4,0,7.5-1.4c2.6-1.7,3.4-5,3.4-8.1c0-2.7-0.7-5.6-3.1-7.2c-2-1.4-4.6-1.5-8.5-1.5h-3.2V193H353.3z"/>
		<path class="st0" d="M399.3,198.6l-0.6-6.3c-2.6,4.8-6.6,7.1-11.1,7.1c-6.7,0-10.3-5.1-10.3-10.2c0-8.2,8.3-11.4,20.9-15.7v-1
			c0-4.9-2.8-6.9-7.4-6.9c-3.9,0-7.1,1.6-9.3,2.8l-2.1-4.7c3.3-1.7,7.9-3.6,13.4-3.6c3.5,0,10.3,0.9,13,5.9c1,1.8,1.2,3.5,1.2,7.6
			v11.3c0,4.6,0.2,9.3,1.1,13.9H399.3z M386,188.2c0,3.8,2.7,5.6,5.1,5.6c2.6,0,4.6-1.7,5.6-4.2c1.2-2.7,1.4-5.7,1.4-9.7v-2
			C389.5,181.3,386,183.4,386,188.2L386,188.2z"/>
		<path class="st0" d="M424.3,160.7l0.3,6.6c2.7-5.5,7.1-7.3,11.2-7.3c5.1,0,8.3,2.8,9.8,5.7c1.1,2.2,1.2,5.4,1.2,9.2v23.8h-9v-23.1
			c0-2.4,0.5-9.4-5.4-9.4c-7.3,0-7.1,10.7-7.1,14.3v18.2h-9v-37.8H424.3z"/>
		<path class="st0" d="M465.1,143v34.8l14.3-17.1h7.2l-13.7,15.4l15,22.4h-10.7l-12.1-18.9v18.9h-9V143H465.1z"/>
	</g>
	<g>
		<g>
			<path class="st0" d="M516.9,39.3l-12.4-3.5c0,0-3.3,11.5-18.3,25.9l4.3,3.4C490.5,65.1,507.4,54.6,516.9,39.3z M506.4,55.5
				c0,0-6.4,15.9-21.4,30.3l4.3,3.4c0,0,3.8-2.8,8.9-7.4v36.8h10.6V71.6c3.7-3.9,7.2-8.3,9.9-12.6L506.4,55.5z M522.1,42V48H568V42
				H522.1z M517.9,70.2h32v42.4H537v6.1h17.4c4.1,0,6.1-0.7,6.1-9.2V70.2h7.5v-6.1h-50.1V70.2z"/>
			<path class="st0" d="M412.3,80.2h9.9v-6.1h-9.9v-7.7h7v-6.1h-22.7c3.2-3.2,7.1-7.5,10.3-12.3c6.6,8.9,14.9,13.5,14.9,13.5
				l2.6-4.1c-9.9-10.6-11-20.2-11-20.2h-12.7c0,0-2.5,13-14.3,25.6l2.9,4c0,0,2.2-1.7,5.2-4.6v4.2h7v7.7h-12.3v6.1h12.3v18.7
				c-1.9-3-6.9-11.7-9.1-14l-4.3,2.3c0,0,4.3,11,5.2,18.1l8.1-5v7.2l-14.7,3.2l2.8,9.1l31.9-10.9l0.5-5.9l-9.9,2.2V80.2z
				 M412.4,99.1l4.9,1.5c2.1-3.2,7.7-13.5,7.7-13.5l-8.2-2.9C415.4,93.7,412.4,99.1,412.4,99.1z M456.5,94.7
				c10.3-3.4,13.6-6.3,13.6-6.3l-5.3-7.5c-2.7,3.5-6.7,6.4-9.7,8.3c-0.6-3.3-1-7.1-0.9-11.1h5.8c4.1,0,6.1-0.7,6.1-9.2V40h-40v69.5
				c0,8.5,2,10,6,9.1c0.9-0.2,1.6-0.3,2.2-0.5l15.7-3.4v-6.1l-13.2,2.9V78h7.5c0,5.9,1.3,30.6,23.2,40.7l3.1-3.7
				C470.5,115,461,108.8,456.5,94.7z M436.7,46.1h18.7v10h-18.7V46.1z M436.7,71.9v-9.8h18.7v9.8H436.7z"/>
		</g>
		<g>
			<path class="st0" d="M241.7,88.3v-8.1h23c4.1,0,6.1-0.7,6.1-9.2V59.9h-69.3V66h29.6v8.1h-34.7V84c0,8.5,2,10.4,6.1,10.4h19.1
				c-1.5,3.1-7.9,11.5-27.1,20.3l2.5,4.7c0,0,20.4-4.8,34.1-20.3v20.7h10.6V94.4h22.6v14.1h-13.6v6.1h18.2c4.1,0,6.1-0.7,6.1-9.2
				v-17H241.7z M241.7,66h18.5v8.1h-18.5V66z M231.1,88.3H207v-8.1h24.1V88.3z M209.2,49h4.3c1.1,1.5,4.1,4.4,5.8,9.1l8.6-2.8
				c0,0-2.5-3-6.2-6.3h13.6v-6.1h-20.8c1.2-1.5,2.4-3.1,3.6-4.8l-11.6-3.5c0,0-2.1,10.4-12.8,21.4l4.3,2.8
				C197.9,58.8,202.2,56.6,209.2,49z M238.6,58.8c0,0,4.3-2.2,11.3-9.8h4.3c1.1,1.5,4.2,4.4,5.8,9.1l8.6-2.8
				c-2.8-3.4-2.8-3.3-6.2-6.3h13v-6.1h-20.2c1.2-1.5,2.4-3.1,3.6-4.8l-11.6-3.5c0,0-2.1,10.4-12.8,21.4L238.6,58.8z"/>
			<path class="st0" d="M369.9,73.9V82h-80.8v-8.2H369.9z"/>
		</g>
	</g>
	<g>
		<g>
			
				<rect x="62.1" y="60" transform="matrix(0.707 -0.7072 0.7072 0.707 -31.7777 79.6647)" class="st1" width="36.3" height="36.3"/>
			<polygon class="st2" points="80.3,52.5 106,78.2 103.4,78.2 103.4,78.2 80.3,55.1 			"/>
			<polygon class="st3" points="80.3,55.1 57.1,78.2 57.1,78.2 54.6,78.2 80.3,52.5 			"/>
			<polygon class="st2" points="80.3,103.9 54.6,78.2 57.1,78.2 57.1,78.2 80.3,101.3 			"/>
			<polygon class="st4" points="80.3,101.3 103.4,78.2 103.4,78.2 106,78.2 80.3,103.9 			"/>
		</g>
		<linearGradient id="SVGID_1_" gradientUnits="userSpaceOnUse" x1="16.3556" y1="125.5214" x2="126.095" y2="13.2301">
			<stop  offset="0" style="stop-color:#B3863B"/>
			<stop  offset="0.1212" style="stop-color:#B4883E"/>
			<stop  offset="0.2186" style="stop-color:#B98E48"/>
			<stop  offset="0.3076" style="stop-color:#C09959"/>
			<stop  offset="0.3918" style="stop-color:#CAA871"/>
			<stop  offset="0.4717" style="stop-color:#D7BB8F"/>
			<stop  offset="0.5" style="stop-color:#DDC39C"/>
			<stop  offset="0.5283" style="stop-color:#D7BB8F"/>
			<stop  offset="0.6082" style="stop-color:#CAA871"/>
			<stop  offset="0.6924" style="stop-color:#C09959"/>
			<stop  offset="0.7814" style="stop-color:#B98E48"/>
			<stop  offset="0.8788" style="stop-color:#B4883E"/>
			<stop  offset="1" style="stop-color:#B3863B"/>
		</linearGradient>
		<path class="st5" d="M15.3,76.8c0-39.2,32.2-71,71.9-71c17.8,0,34.2,6.4,46.7,17l0.6-0.6C120.3,8.5,100.7,0,79.2,0
			C35.5,0,0,35,0,78.2c0,35.7,29.2,63.4,65.3,63.4c19.5,0,37-7.4,48.9-20.8l-0.4-0.4c-10.5,8.9-24.2,13.8-39.3,13.8
			C41.9,134.4,15.3,109.2,15.3,76.8z"/>
		<linearGradient id="SVGID_2_" gradientUnits="userSpaceOnUse" x1="142.8021" y1="31.1713" x2="35.6116" y2="143.1827">
			<stop  offset="0" style="stop-color:#00573D"/>
			<stop  offset="0.1173" style="stop-color:#03593F"/>
			<stop  offset="0.2115" style="stop-color:#0D6046"/>
			<stop  offset="0.2977" style="stop-color:#1E6C53"/>
			<stop  offset="0.3791" style="stop-color:#367C64"/>
			<stop  offset="0.4565" style="stop-color:#549279"/>
			<stop  offset="0.5" style="stop-color:#69A088"/>
			<stop  offset="0.5435" style="stop-color:#549279"/>
			<stop  offset="0.6209" style="stop-color:#367C64"/>
			<stop  offset="0.7023" style="stop-color:#1E6C53"/>
			<stop  offset="0.7885" style="stop-color:#0D6046"/>
			<stop  offset="0.8827" style="stop-color:#03593F"/>
			<stop  offset="1" style="stop-color:#00573D"/>
		</linearGradient>
		<path class="st6" d="M145.2,79.6c0,39.2-32.2,71-71.9,71c-17.8,0-34.2-6.4-46.7-17l-0.6,0.6c14.3,13.8,33.8,22.2,55.3,22.2
			c43.8,0,79.2-35,79.2-78.2c0-35.7-29.2-63.4-65.3-63.4c-19.5,0-37,7.4-48.9,20.8l0.4,0.4C57.1,26.9,70.9,22,85.9,22
			C118.7,22,145.2,47.2,145.2,79.6z"/>
		<linearGradient id="SVGID_3_" gradientUnits="userSpaceOnUse" x1="82.0141" y1="11.73" x2="61.4459" y2="110.115">
			<stop  offset="5.494510e-03" style="stop-color:#804C2E"/>
			<stop  offset="0.3" style="stop-color:#B3863B"/>
			<stop  offset="1" style="stop-color:#804C2E"/>
		</linearGradient>
		<path class="st7" d="M79.5,131.8c-29.5,0-54.5-23.9-54.5-53.4c0-43,31.4-67.8,68.8-67.8c14.8,0,28.5,4.7,39.6,12.8l0.5-0.4
			c-12.6-10.6-28.9-17-46.7-17c-39.7,0-71.9,31.8-71.9,71c0,32.4,26.5,57.6,59.2,57.6c15.1,0,28.8-4.9,39.3-13.8l-0.7-0.7
			C104,127.3,92.3,131.8,79.5,131.8z"/>
		<linearGradient id="SVGID_4_" gradientUnits="userSpaceOnUse" x1="80.7849" y1="13.4012" x2="62.2731" y2="111.7881">
			<stop  offset="0" style="stop-color:#C89E4E"/>
			<stop  offset="0.3" style="stop-color:#F4E8D0"/>
			<stop  offset="1" style="stop-color:#C89E4E"/>
		</linearGradient>
		<path class="st8" d="M87.3,5.8c-39.9,0-72.2,31.8-72.2,71.1c0,32.4,26.7,57.6,59.5,57.6c15.1,0,28.9-4.9,39.4-13.8l-0.2-0.2
			c-10.4,8.6-23.9,13.2-38.7,13.2c-32.7,0-59.2-25-59.2-57C16,37.9,48.2,6.5,87.8,6.5c17.6,0,33.6,6.2,46.1,16.4l0.1-0.1
			C121.5,12.2,105.1,5.8,87.3,5.8z"/>
		<path class="st9" d="M95.2,14.7c-19.5,0-37,7.4-48.9,20.8l1,1c9.2-7.4,20.9-11.9,33.6-11.9c29.5,0,54.5,23.9,54.5,53.4
			c0,43-31.4,67.9-68.8,67.9c-14.8,0-28.5-4.8-39.6-12.8l-1.1,1.1c14.3,13.8,33.8,22.2,55.3,22.2c43.8,0,79.2-35,79.2-78.2
			C160.5,42.5,131.3,14.7,95.2,14.7z"/>
		<linearGradient id="SVGID_5_" gradientUnits="userSpaceOnUse" x1="99.1595" y1="46.5853" x2="77.9043" y2="144.6326">
			<stop  offset="5.494510e-03" style="stop-color:#004730"/>
			<stop  offset="0.7" style="stop-color:#00573D"/>
			<stop  offset="1" style="stop-color:#004730"/>
		</linearGradient>
		<path class="st10" d="M81,24.6c29.5,0,54.5,23.9,54.5,53.4c0,43-31.4,67.9-68.8,67.9c-14.8,0-28.5-4.8-39.6-12.8l-0.4,0.5
			c12.6,10.6,28.9,17,46.7,17c39.7,0,71.9-31.8,71.9-71c0-32.4-26.5-57.6-59.3-57.6c-15.1,0-28.8,4.9-39.3,13.8l0.7,0.7
			C56.5,29.1,68.2,24.6,81,24.6z"/>
		<linearGradient id="SVGID_6_" gradientUnits="userSpaceOnUse" x1="79.0161" y1="144.4003" x2="98.8989" y2="46.357">
			<stop  offset="0" style="stop-color:#007559"/>
			<stop  offset="0.3" style="stop-color:#EAF5F5"/>
			<stop  offset="1" style="stop-color:#007559"/>
		</linearGradient>
		<path class="st11" d="M73.2,150.6c39.9,0,72.2-31.8,72.2-71.1c0-32.4-26.7-57.6-59.5-57.6c-15.1,0-28.9,4.9-39.5,13.8l0.2,0.2
			C57,27.3,70.5,22.6,85.3,22.6c32.7,0,59.2,25,59.2,57c0,38.8-32.1,70.3-71.8,70.3c-17.6,0-33.6-6.2-46.1-16.4l-0.1,0.1
			C39.1,144.2,55.4,150.6,73.2,150.6z"/>
	</g>
</g>
</svg>
